<svg width="519" height="574" viewBox="0 0 519 574" fill="none" xmlns="http://www.w3.org/2000/svg">
<path fill-rule="evenodd" clip-rule="evenodd" d="M279.85 109.374C272.451 116.724 265.055 124.072 257.656 131.422C250.834 124.555 244.009 117.686 237.186 110.819C214.885 85.1121 213.134 57.9854 231.931 29.4355C240.642 19.2093 249.891 9.49511 259.678 0.294534C278.396 16.9099 290.703 37.2241 296.601 61.2387C298.261 79.7766 292.677 95.8205 279.85 109.374Z" fill="#EE217F"/>
<path fill-rule="evenodd" clip-rule="evenodd" d="M518.379 108.151V512.767C460.943 511.679 403.616 512.89 346.393 516.401C316.131 525.887 291.908 543.656 273.723 569.704C265.909 572.609 257.835 573.82 249.5 573.338C245.801 573.515 243.379 571.899 242.233 568.492C224.366 540.925 199.336 523.965 167.141 517.612C163.624 515.669 159.588 514.458 155.029 513.978C103.358 512.767 51.6826 512.362 0 512.767V108.151C61.371 107.748 122.737 108.151 184.097 109.363C203.615 112.879 219.981 120.77 233.194 133.035C232.601 134.414 232.117 135.882 231.742 137.439C231.477 158.76 231.248 180.08 231.056 201.4C229.695 200.048 228.25 198.736 226.72 197.467C207.03 185.628 185.581 180.438 162.373 181.895C162.028 194.371 162.375 206.828 163.41 219.266C169.92 250.35 188.946 266.959 220.493 269.094H230.564C230.432 293.053 230.347 317.012 230.306 340.972C228.063 338.354 225.533 335.876 222.717 333.538C203.027 321.7 181.579 316.51 158.37 317.967C158.025 330.443 158.372 342.9 159.408 355.338C165.917 386.422 184.943 403.031 216.49 405.165H230.307C230.333 420.593 230.378 436.02 230.442 451.448H285.043C284.848 435.263 284.741 419.101 284.724 402.961H304.703C322.032 402.428 336.219 395.509 347.264 382.204C359.102 362.514 364.292 341.065 362.835 317.856C350.359 317.512 337.902 317.859 325.464 318.894C306.743 322.815 293.272 331.276 285.052 344.277C285.365 318.869 285.9 293.518 286.656 268.223H304.703C322.032 267.69 336.219 260.771 347.264 247.466C359.102 227.776 364.292 206.327 362.835 183.119C350.359 182.774 337.902 183.121 325.464 184.157C307.944 187.826 295.022 195.471 286.699 207.094C285.735 183.583 284.192 160.164 282.068 136.839C294.703 123.106 310.493 113.543 329.437 108.151H518.379Z" fill="#EE217F"/>
</svg>
