<svg width="930" height="920" viewBox="0 0 930 920" fill="none" xmlns="http://www.w3.org/2000/svg">
<path d="M257.816 590.958C257.684 590.785 257.558 590.594 257.505 590.405C257.478 590.312 257.448 590.146 257.52 589.97C257.605 589.763 257.779 589.658 257.93 589.62C258.062 589.587 258.188 589.599 258.277 589.614C258.373 589.631 258.471 589.66 258.568 589.695C258.762 589.764 258.992 589.873 259.251 590.014C259.718 590.267 260.11 590.551 260.325 590.833C260.421 590.959 260.568 591.195 260.515 591.482C260.449 591.831 260.156 591.974 259.963 592.023C259.906 592.037 259.847 592.047 259.789 592.052C266.717 595.654 272.68 597.888 278.086 598.841C286.895 600.393 294.26 598.548 301.968 593.575L308.8 589.166L364.839 496.272C391.261 452.472 405.35 429.166 413.334 416.382C421.303 403.621 423.22 401.29 425.293 399.515C430.524 395.037 438.425 390.013 443.575 387.903C444.587 387.488 445.502 386.98 446.157 386.504C446.485 386.265 446.734 386.044 446.896 385.857C447.042 385.689 447.074 385.599 447.081 385.58C447.082 385.576 447.082 385.575 447.082 385.578L447.082 385.577C447.086 385.395 447.099 385.232 447.125 385.097C447.137 385.031 447.156 384.956 447.185 384.885C447.209 384.825 447.264 384.705 447.385 384.613C447.452 384.562 447.544 384.516 447.656 384.504C447.768 384.491 447.868 384.515 447.946 384.551C448.085 384.616 448.165 384.722 448.202 384.775C448.258 384.857 448.303 384.955 448.34 385.055C448.413 385.078 448.529 385.103 448.697 385.124C449.087 385.173 449.657 385.188 450.375 385.165C451.805 385.118 453.75 384.922 455.861 384.584C460.121 383.902 474.752 381.907 488.373 380.151C501.994 378.394 520.068 376.037 528.535 374.912C537.004 373.786 562.314 370.485 584.78 367.577C607.248 364.667 628.94 361.818 632.989 361.245L633.059 361.74L632.989 361.245C646.672 359.309 658.062 361.651 670.186 368.889C678.694 373.969 684.529 380.158 692.144 392.113C697.321 400.24 699.217 408.422 697.937 415.642C696.655 422.872 692.198 429.076 684.8 433.246C684.608 433.354 684.427 433.458 684.252 433.559C683.204 434.165 682.355 434.655 680.493 435.155C678.355 435.729 674.858 436.325 668.056 437.2C655.42 438.825 631.28 441.424 583.008 446.621C579.252 447.025 575.351 447.445 571.298 447.882C557.578 449.359 544.186 450.946 533.664 452.312C523.12 453.682 515.504 454.824 513.296 455.41C504.974 457.618 497.814 461.671 492.594 467.108L492.234 466.762L492.594 467.108C492.504 467.202 492.314 467.448 492.011 467.883C491.716 468.305 491.331 468.88 490.857 469.605C489.909 471.056 488.611 473.102 486.969 475.732C483.687 480.991 479.038 488.576 473.084 498.383C461.176 517.998 444.054 546.498 422.22 583.054C388.994 638.685 372.137 666.921 363.552 681.773C359.258 689.203 357.042 693.267 355.883 695.73C355.304 696.96 354.996 697.775 354.824 698.4C354.653 699.017 354.611 699.462 354.577 699.968C354.313 703.965 356.191 708.351 359.178 711.819C362.165 715.288 366.183 717.749 370.093 717.998C372.071 718.124 375.088 717.666 377.634 716.998C378.903 716.665 380.027 716.286 380.827 715.916C381.23 715.73 381.527 715.556 381.717 715.404C381.853 715.296 381.89 715.235 381.899 715.22C381.904 715.051 381.917 714.899 381.942 714.772C381.955 714.705 381.974 714.63 382.006 714.556C382.032 714.496 382.096 714.368 382.234 714.278C382.42 714.158 382.634 714.171 382.794 714.259C382.918 714.327 382.99 714.426 383.026 714.48C383.104 714.599 383.161 714.75 383.206 714.898C383.219 714.938 383.231 714.961 383.288 714.992C383.371 715.037 383.544 715.091 383.888 715.11C384.578 715.148 385.747 715.036 387.719 714.703C391.645 714.041 398.576 712.537 410.799 709.803C421.87 707.327 451.599 700.787 476.862 695.269C502.126 689.751 528.075 684.049 534.526 682.598C540.98 681.147 556.447 677.716 568.897 674.974C586.499 671.096 595.715 669.033 601.133 667.439C603.837 666.643 605.571 665.97 606.918 665.258C608.261 664.549 609.237 663.791 610.427 662.795C612.395 661.146 614.043 659.285 622.899 644.916C631.738 630.573 647.729 603.823 678.38 552.484C708.403 502.195 724.368 475.404 732.951 460.581C741.534 445.758 742.697 442.959 743.174 440.644L744.151 433.626C749.058 398.367 735.894 365.43 706.505 345.397C698.503 339.942 690.776 334.796 684.59 330.859C676.301 325.583 666.308 323.604 656.489 324.485C642.042 325.781 619.803 328.072 601.177 330.15C591.864 331.189 583.456 332.175 577.379 332.955C574.34 333.346 571.887 333.685 570.197 333.953C569.351 334.087 568.704 334.203 568.272 334.297C568.134 334.327 568.024 334.354 567.94 334.376C567.852 334.684 567.645 334.936 567.403 335.114C567.072 335.356 566.638 335.495 566.18 335.502M257.816 590.958L566.18 335.502M257.816 590.958C257.836 590.985 257.857 591.011 257.879 591.038C254 588.936 249.823 586.425 245.281 583.49C216.165 564.678 196.749 540.784 189.15 514.516C184.27 497.645 184.802 483.381 190.776 469.764C190.937 469.395 191.54 468.286 192.563 466.475C193.579 464.679 194.994 462.219 196.763 459.173C200.3 453.081 205.251 444.646 211.254 434.481C223.26 414.153 239.47 386.909 256.988 357.656C260.115 352.434 263.094 347.458 265.935 342.713C294.957 294.239 309.46 270.016 317.985 257.038C322.665 249.913 325.525 246.208 327.98 243.746C329.992 241.728 331.734 240.541 334.034 238.973C334.537 238.63 335.065 238.27 335.629 237.879L335.344 237.468L335.629 237.879C343.45 232.454 352.96 228.46 363.768 226.072C365.909 225.599 372.427 224.959 382.473 224.208C392.497 223.458 405.987 222.601 422.029 221.687C454.113 219.861 496.401 217.811 541.58 215.955C560.215 215.189 569.944 214.812 575.706 214.867C578.584 214.894 580.451 215.03 581.934 215.274C583.41 215.518 584.52 215.871 585.889 216.353C590.317 217.911 594.037 221.809 596.672 225.384C597.983 227.163 599.012 228.844 599.714 230.08C600.064 230.697 600.332 231.203 600.512 231.553C600.602 231.728 600.67 231.864 600.715 231.956C600.73 231.986 600.742 232.011 600.752 232.032L601.673 237.663C603.211 247.061 598.71 256.414 590.415 261.077M257.816 590.958C257.816 590.958 257.815 590.958 257.815 590.958L590.415 261.077M566.18 335.502C565.958 335.505 565.754 335.494 565.586 335.457C565.503 335.439 565.402 335.408 565.307 335.351C565.211 335.294 565.079 335.183 565.025 334.994C564.97 334.801 565.026 334.634 565.084 334.53C565.14 334.429 565.215 334.351 565.279 334.295C565.377 334.209 565.503 334.126 565.643 334.047M566.18 335.502L565.643 334.047M565.643 334.047C565.079 334.075 564.288 334.128 563.257 334.208C560.996 334.381 557.599 334.68 552.954 335.113C543.666 335.98 529.394 337.385 509.251 339.413C503.926 339.949 499.091 340.56 495.592 341.111C493.841 341.387 492.434 341.647 491.469 341.873C490.984 341.987 490.628 342.089 490.401 342.175C490.371 342.186 490.344 342.196 490.322 342.206C490.312 342.3 490.293 342.394 490.261 342.48C490.203 342.635 490.026 342.929 489.651 342.913C489.38 342.902 489.197 342.716 489.115 342.623C489.03 342.526 488.95 342.407 488.875 342.274C488.842 342.263 488.794 342.249 488.728 342.234C488.522 342.188 488.214 342.148 487.802 342.118C486.983 342.058 485.821 342.042 484.394 342.071C481.544 342.128 477.679 342.362 473.477 342.759C446.763 345.285 426.981 346.736 419.193 346.738C402.96 346.742 390.465 342.967 380.259 334.917C373.981 329.966 368.125 321.836 364.205 313.725C362.242 309.665 360.757 305.594 359.946 301.907C359.138 298.231 358.99 294.888 359.756 292.314L360.235 292.457L359.756 292.314C361.297 287.14 364.602 283.451 370.42 280.895C376.204 278.355 384.485 276.927 396.02 276.226C399.041 276.043 401.718 275.75 403.631 275.422C404.591 275.258 405.341 275.087 405.842 274.923C406.076 274.846 406.232 274.778 406.326 274.725C406.331 274.587 406.347 274.453 406.383 274.336C406.422 274.208 406.573 273.85 406.983 273.85C407.148 273.851 407.275 273.918 407.354 273.972C407.435 274.028 407.502 274.097 407.556 274.161C407.652 274.274 407.744 274.418 407.833 274.582C407.862 274.596 407.909 274.614 407.98 274.635C408.166 274.691 408.447 274.744 408.829 274.79C409.587 274.881 410.672 274.934 412.035 274.945C414.758 274.968 418.544 274.824 422.958 274.51C431.181 273.924 441.309 273.266 445.467 273.046L445.467 273.046C449.617 272.828 460.652 272.15 469.989 271.541C479.327 270.931 501.29 269.667 518.802 268.732L590.415 261.077M565.643 334.047L590.415 261.077M447.526 385.459C447.526 385.459 447.525 385.459 447.525 385.458L447.586 385.482C447.564 385.475 447.544 385.468 447.526 385.459ZM488.821 342.174L488.821 342.174L488.821 342.174ZM407.8 274.564C407.801 274.565 407.802 274.565 407.804 274.566C407.799 274.564 407.799 274.563 407.8 274.564ZM448.265 385.025C448.267 385.025 448.271 385.028 448.277 385.032C448.266 385.027 448.263 385.024 448.265 385.025ZM448.385 385.189C448.385 385.19 448.386 385.191 448.386 385.192L448.386 385.192C448.386 385.191 448.385 385.19 448.385 385.189ZM382.904 714.991L382.75 715.038L382.904 714.991Z" fill="black" stroke="black"/>
<path d="M659.465 399.994L473.372 420.896C469.643 421.315 466.324 423.454 464.403 426.678L329.454 653.102" stroke="black" stroke-width="20" stroke-linecap="round"/>
<path d="M407.599 311.602L616.566 293.079" stroke="black" stroke-width="16" stroke-linecap="round"/>
</svg>
