<svg xmlns="http://www.w3.org/2000/svg" viewBox="0 0 1154.9 650" overflow="visible"><g transform="translate(40, 400)"><path fill="#000" stroke="#000" d="M216.80 51.50L216.80 51.50Q222.50 52.10 222.50 54.80L222.50 54.80Q222.50 55.70 221 56.60L221 56.60Q206.90 63.50 200 35.60L200 35.60Q188.60-9.70 197-115.90L197-115.90Q201.50-170.80 209.30-212.80L209.30-212.80Q195.80-194.80 180.20-167.05Q164.60-139.30 152.15-114.70Q139.70-90.10 127.85-67.45Q116-44.80 106.25-32.35Q96.50-19.90 89.90-21.40L89.90-21.40Q83.60-22.90 86.90-51.55Q90.20-80.20 97.25-113.95Q104.30-147.70 108.05-176.65Q111.80-205.60 106.40-207.70L106.40-207.70Q102.50-208.90 86-174.70Q69.50-140.50 49.25-93.85Q29-47.20 24.50-38.50L24.50-38.50Q17-3.40 7.40 49.10L7.40 49.10Q7.10 51.80 4.70 52.70Q2.30 53.60 0.20 52.25Q-1.90 50.90-1.60 48.20L-1.60 48.20Q4.70 0.20 14.30-46L14.30-46Q14-46.60 14.30-47.50L14.30-47.50Q14.60-48.40 14.90-49L14.90-49Q36.50-148.90 71.60-227.80L71.60-227.80Q61.70-217.30 49.40-209.80L49.40-209.80Q45.80-207.70 43.40-210.70Q41-213.70 44-216.70L44-216.70Q73.70-245.20 82.70-254.80L82.70-254.80Q85.70-258.40 89-254.80L89-254.80Q89-254.80 89-254.50L89-254.50Q89.30-254.50 89.30-254.20L89.30-254.20Q90.20-253.30 89.90-252.10L89.90-252.10Q89.90-251.50 89.60-251.20L89.60-251.20Q85.10-236.80 67.25-186.25Q49.40-135.70 41.60-107.50L41.60-107.50Q41.30-106.90 41-105.85Q40.70-104.80 40.40-103.75Q40.10-102.70 39.80-101.80L39.80-101.80Q102.20-231.70 113-226L113-226Q121.10-221.80 118.10-191.35Q115.10-160.90 107.75-126.40Q100.40-91.90 95.30-63.10Q90.20-34.30 93.50-33.10L93.50-33.10Q97.70-31.90 108.20-48.10Q118.70-64.30 132.35-90.25Q146-116.20 160.25-143.65Q174.50-171.10 189.35-195.85Q204.20-220.60 213.80-230.50L213.80-230.50Q215.60-232.30 218-230.80Q220.40-229.30 220.10-227.20L220.10-227.20Q213.80-190.30 208.85-126.40Q203.90-62.50 204.95-6.25Q206 50 216.80 51.50ZM293.60-103L293.60-103Q295.10-105.10 296.60-103L296.60-103Q297.50-102.10 296.60-101.20L296.60-101.20Q279.80-76.60 249.20-73.90L249.20-73.90Q242.30-54.10 228.80-54.10L228.80-54.10Q224.60-54.40 224.90-63.55Q225.20-72.70 229.10-82L229.10-82Q224.30-90.70 229.70-101.20L229.70-101.20Q231.20-104.80 234.20-107.20Q237.20-109.60 240.20-110.05Q243.20-110.50 246.05-109.45Q248.90-108.40 250.85-105.55Q252.80-102.70 253.10-98.20L253.10-98.20Q253.70-89.20 250.40-77.80L250.40-77.80Q275.30-80.20 293.60-103ZM228.50-58.60L228.50-58.60Q231.80-57.70 235.10-62.20Q238.40-66.70 241.10-73.90L241.10-73.90Q235.40-74.80 231.80-78.40L231.80-78.40Q229.10-72.70 228.05-66.70Q227-60.70 228.50-58.60ZM242.30-78.40L242.30-78.40Q243.80-84.40 244.40-89.80L244.40-89.80Q239.30-89.50 234.80-83.50L234.80-83.50Q238.10-79.60 242.30-78.40ZM232.40-87.70L232.40-87.70Q237.80-95.80 244.40-95.20L244.40-95.20Q243.80-105.40 237.50-102.40L237.50-102.40Q233-100.30 231.80-96.10Q230.60-91.90 232.40-87.70ZM365.30-85.60L365.30-85.60Q365.90-86.50 366.95-86.35Q368-86.20 368.45-85.45Q368.90-84.70 368.30-83.80L368.30-83.80Q367.40-82.30 364.25-77.50Q361.10-72.70 358.40-68.80Q355.70-64.90 351.95-60.25Q348.20-55.60 344.75-53.20Q341.30-50.80 337.55-49.90Q333.80-49 330.50-52.15Q327.20-55.30 324.50-62.20L324.50-62.20Q323-66.10 322.10-74.50Q321.20-82.90 319.85-88.15Q318.50-93.40 315.80-93.10L315.80-93.10Q307.70-91.90 297.80-57.25Q287.90-22.60 284 3.50L284 3.50Q284 3.80 283.10 4.10L283.10 4.10Q283.10 4.40 283.10 4.55Q283.10 4.70 283.10 5L283.10 5Q283.10 6.20 282.20 6.65Q281.30 7.10 280.25 6.65Q279.20 6.20 279.20 5L279.20 5Q276.50-106.60 304.10-198.70L304.10-198.70Q305.60-202.30 308.90-201.40Q312.20-200.50 311.60-196.90L311.60-196.90Q309.80-188.20 303.35-155.80Q296.90-123.40 294.50-109.45Q292.10-95.50 288.65-70.90Q285.20-46.30 284-25.90L284-25.90Q289.70-54.70 300.65-82.30Q311.60-109.90 320-109.90L320-109.90Q325.70-109.90 328.40-91L328.40-91Q331.40-68.50 334.10-64L334.10-64Q338.90-54.40 350.30-64.60L350.30-64.60Q352.40-66.40 355.25-70.30Q358.10-74.20 361.25-79.30Q364.40-84.40 365.30-85.60ZM444.50-98.50L444.50-98.50Q446-99.70 447.20-98.05Q448.40-96.40 447.20-94.90L447.20-94.90Q443.30-91 440-87.40L440-87.40Q438.50-85.90 437-87.10L437-87.10Q432.80-83.80 430.70-82.15Q428.60-80.50 424.10-77.05Q419.60-73.60 416.90-71.80Q414.20-70 410.15-67.30Q406.10-64.60 403.40-63.55Q400.70-62.50 397.70-61.60Q394.70-60.70 392.45-61Q390.20-61.30 388.70-62.50L388.70-62.50Q381.20-68.80 381.80-79.90L381.80-79.90Q360.50-56.80 351.80-58.90L351.80-58.90Q348.20-61.60 351.05-72.10Q353.90-82.60 363.35-94.30Q372.80-106 380.60-105.70L380.60-105.70Q389.30-105.40 389-95.80L389-95.80Q389.30-96.10 389.60-96.40L389.60-96.40L389.60-96.40Q389.60-96.40 389.90-96.55Q390.20-96.70 390.20-97L390.20-97Q392-98.20 393.20-96.40Q394.40-94.60 393.20-93.10L393.20-93.10Q390.80-90.40 389-88L389-88Q386.30-82.60 388.55-76.90Q390.80-71.20 395.60-69.40L395.60-69.40Q399.50-67.60 408.80-73.15Q418.10-78.70 430.40-88.15Q442.70-97.60 444.50-98.50ZM359.30-67.30L359.30-67.30Q365.30-67.30 378.80-83.20L378.80-83.20Q376.40-85 377.30-87.70L377.30-87.70Q375.20-92.80 365.60-83.20L365.60-83.20Q356-73.60 356.90-68.80L356.90-68.80Q357.20-67 359.30-67.30ZM545.30-96.70L545.30-96.70Q546.20-98.20 547.70-97L547.70-97Q548.30-96.10 548-95.20L548-95.20Q539-81.70 524.60-69.10Q510.20-56.50 501.80-58.60L501.80-58.60Q496.70-59.50 495.05-67Q493.40-74.50 494.15-80.95Q494.90-87.40 492.80-90.10L492.80-90.10Q492.50-90.40 491.60-89.20Q490.70-88 489.65-85.60Q488.60-83.20 487.25-80.35Q485.90-77.50 484.25-74.65Q482.60-71.80 481.10-69.40Q479.60-67 477.95-65.50Q476.30-64 474.80-64.30L474.80-64.30Q470.90-64.30 469.85-71.95Q468.80-79.60 469.70-88.60Q470.60-97.60 470.60-105.10Q470.60-112.60 468.80-112.30L468.80-112.30Q464-112.30 455.45-90.10Q446.90-67.90 441.80-46.30L441.80-46.30Q440.60-41.20 440.15-39.25Q439.70-37.30 438.65-34.45Q437.60-31.60 436.55-30.70Q435.50-29.80 434-29.80L434-29.80Q427.40-31 432.80-70.15Q438.20-109.30 447.80-136.90L447.80-136.90Q448.40-138.10 450.65-138.55Q452.90-139 455-137.80Q457.10-136.60 456.80-133.60L456.80-133.60Q455.90-126.70 454.10-123.70Q452.30-120.70 452-119.80L452-119.80Q451.40-116.80 448.40-103.45Q445.40-90.10 442.85-77.05Q440.30-64 439.70-55L439.70-55Q440.30-56.50 441.95-61.30Q443.60-66.10 444.95-69.85Q446.30-73.60 448.40-79.15Q450.50-84.70 452.30-89.05Q454.10-93.40 456.20-98.35Q458.30-103.30 460.25-106.75Q462.20-110.20 464-113.05Q465.80-115.90 467.60-116.95Q469.40-118 470.60-117.10L470.60-117.10Q474.80-114.70 475.55-102.70Q476.30-90.70 475.25-82Q474.20-73.30 476-71.80L476-71.80Q476.90-72.10 480.65-79.15Q484.40-86.20 488.75-92.95Q493.10-99.70 495.80-99.40L495.80-99.40Q497.60-99.10 498.50-96.25Q499.40-93.40 499.55-89.35Q499.70-85.30 500-80.65Q500.30-76 500.45-71.95Q500.60-67.90 501.65-65.35Q502.70-62.80 504.50-63.10L504.50-63.10Q508.70-63.40 515.30-67.60Q521.90-71.80 527.75-77.35Q533.60-82.90 538.55-88.15Q543.50-93.40 545.30-96.70ZM585.50-99.40L585.50-99.40Q586.10-100.60 587.45-100.45Q588.80-100.30 589.40-99.40Q590-98.50 589.40-97.30L589.40-97.30Q578.30-80.80 564.80-69.40L564.80-69.40Q564.50-69.10 562.25-67.15Q560-65.20 559.25-64.60Q558.50-64 556.40-62.35Q554.30-60.70 553.25-59.95Q552.20-59.20 550.25-58Q548.30-56.80 546.80-56.05Q545.30-55.30 543.50-54.70Q541.70-54.10 540.20-53.80L540.20-53.80Q532.40-52.60 528.35-57.25Q524.30-61.90 524.60-68.50Q524.90-75.10 527.30-81.10L527.30-81.10Q528.80-83.80 531.35-88.15Q533.90-92.50 538.10-98.05Q542.30-103.60 546.50-107.20Q550.70-110.80 555.05-112.60Q559.40-114.40 562.70-111.10L562.70-111.10Q565.70-108.70 565.85-105.70Q566-102.70 564.05-100Q562.10-97.30 559.10-94.75Q556.10-92.20 552.05-89.95Q548-87.70 544.55-86.05Q541.10-84.40 537.80-82.90L537.80-82.90Q533.60-73.90 534.35-66.40Q535.10-58.90 543.20-60.40L543.20-60.40Q549.80-61.90 564.50-75.55Q579.20-89.20 585.50-99.40ZM551-103.60L551-103.60Q548.60-103.30 543.50-94.90L543.50-94.90Q543.80-94.90 543.80-94.90L543.80-94.90Q552.50-101.80 552.50-103L552.50-103Q552.20-103.60 551-103.60ZM654.80-219.40L654.80-219.40Q656.30-220.30 657.80-219.10Q659.30-217.90 658.70-216.10L658.70-216.10Q649.10-185.50 635.30-154.90L635.30-154.90Q612.50-56.20 624.20 36.80L624.20 36.80Q624.50 38.90 621.95 39.35Q619.40 39.80 619.10 37.40L619.10 37.40Q608.60-39.70 617.90-106.90L617.90-106.90Q618.80-114.70 620.60-124.30L620.60-124.30Q614.60-112.90 608-101.20L608-101.20Q609.20-100.60 609.80-100L609.80-100Q611.90-98.50 611-96.25Q610.10-94 607.70-94.60L607.70-94.60Q606.20-95.20 604.40-95.20L604.40-95.20Q590.30-71.50 574.70-49.60L574.70-49.60Q573.80-48.40 572.30-48.55Q570.80-48.70 570.20-50.20L570.20-50.20Q566.90-59.50 570.50-73.60Q574.10-87.70 583.55-97.30Q593-106.90 603.50-103.30L603.50-103.30Q610.40-115.60 614.60-123.40L614.60-123.40Q619.10-131.80 624.20-142.90L624.20-142.90Q628.70-163.30 635-182.20L635-182.20Q635.60-184.30 637.25-190Q638.90-195.70 640.10-199.15Q641.30-202.60 643.25-206.95Q645.20-211.30 648.05-214.45Q650.90-217.60 654.80-219.40ZM586.40-75.10L586.40-75.10Q591.20-82.30 598.40-94.60L598.40-94.60Q587.90-91 580.70-77.20L580.70-77.20Q570.80-58 573.80-59.50L573.80-59.50Q577.10-61 586.40-75.10ZM897.80-242.80L897.80-242.80Q900.20-242.20 900.65-240.10Q901.10-238 899.60-236.35Q898.10-234.70 895.70-235L895.70-235Q871.40-240.40 847.70-235.90L847.70-235.90Q854.60-214.30 854.45-181.75Q854.30-149.20 848.45-114.40Q842.60-79.60 830.90-45.40Q819.20-11.20 804.50 14.45Q789.80 40.10 770.45 53.30Q751.10 66.50 731.30 60.50L731.30 60.50Q716.00 55.70 707.75 41.15Q699.50 26.60 698.45 6.95Q697.40-12.70 699.80-34.75Q702.20-56.80 707.90-78.55Q713.60-100.30 719.15-116.65Q724.70-133 729.50-143.50L729.50-143.50Q731.00-146.80 733.10-151L733.10-151Q737.00-169.90 742.25-187Q747.50-204.10 755.75-221.05Q764.00-238 773.30-249.40Q782.60-260.80 795.50-265.90Q808.40-271 822.50-266.50L822.50-266.50Q836.30-262.30 844.40-244L844.40-244Q871.10-249.10 897.80-242.80ZM808.10-257.20L808.10-257.20Q799.10-257.80 790.70-251.95Q782.30-246.10 775.40-235Q768.50-223.90 762.80-211Q757.10-198.10 752.30-181.90L752.30-181.90Q786.50-227.20 833.30-241L833.30-241Q823.70-256 808.10-257.20ZM736.70 47.30L736.70 47.30Q753.50 51.20 770.90 37.25Q788.30 23.30 801.80-1.60Q815.30-26.50 825.95-59.05Q836.60-91.60 841.85-123.85Q847.10-156.10 846.20-185.65Q845.30-215.20 837.20-233.20L837.20-233.20Q809.60-225.40 786.20-205.30Q762.80-185.20 745.70-157.30L745.70-157.30Q736.40-119.20 734.90-94.60L734.90-94.60Q734.60-90.70 730.10-89.80L730.10-89.80Q725.60-88.90 725.60-93.10L725.60-93.10Q725.60-104.20 728.00-121.60L728.00-121.60Q725.30-115 723.20-108.70L723.20-108.70Q720.20-99.10 717.20-85.75Q714.20-72.40 711.35-55.45Q708.50-38.50 708.20-21.70Q707.90-4.90 709.85 9.65Q711.80 24.20 718.70 34.40Q725.60 44.60 736.70 47.30ZM970.10-96.70L970.10-96.70Q971-98.20 972.50-97L972.50-97Q973.10-96.10 972.80-95.20L972.80-95.20Q963.80-81.70 949.40-69.10Q935-56.50 926.60-58.60L926.60-58.60Q921.50-59.50 919.85-67Q918.20-74.50 918.95-80.95Q919.70-87.40 917.60-90.10L917.60-90.10Q917.30-90.40 916.40-89.20Q915.50-88 914.45-85.60Q913.40-83.20 912.05-80.35Q910.70-77.50 909.05-74.65Q907.40-71.80 905.90-69.40Q904.40-67 902.75-65.50Q901.10-64 899.60-64.30L899.60-64.30Q895.70-64.30 894.65-71.95Q893.60-79.60 894.50-88.60Q895.40-97.60 895.40-105.10Q895.40-112.60 893.60-112.30L893.60-112.30Q888.80-112.30 880.25-90.10Q871.70-67.90 866.60-46.30L866.60-46.30Q865.40-41.20 864.95-39.25Q864.50-37.30 863.45-34.45Q862.40-31.60 861.35-30.70Q860.30-29.80 858.80-29.80L858.80-29.80Q852.20-31 857.60-70.15Q863-109.30 872.60-136.90L872.60-136.90Q873.20-138.10 875.45-138.55Q877.70-139 879.80-137.80Q881.90-136.60 881.60-133.60L881.60-133.60Q880.70-126.70 878.90-123.70Q877.10-120.70 876.80-119.80L876.80-119.80Q876.20-116.80 873.20-103.45Q870.20-90.10 867.65-77.05Q865.10-64 864.50-55L864.50-55Q865.10-56.50 866.75-61.30Q868.40-66.10 869.75-69.85Q871.10-73.60 873.20-79.15Q875.30-84.70 877.10-89.05Q878.90-93.40 881-98.35Q883.10-103.30 885.05-106.75Q887-110.20 888.80-113.05Q890.60-115.90 892.40-116.95Q894.20-118 895.40-117.10L895.40-117.10Q899.60-114.70 900.35-102.70Q901.10-90.70 900.05-82Q899-73.30 900.80-71.80L900.80-71.80Q901.70-72.10 905.45-79.15Q909.20-86.20 913.55-92.95Q917.90-99.70 920.60-99.40L920.60-99.40Q922.40-99.10 923.30-96.25Q924.20-93.40 924.35-89.35Q924.50-85.30 924.80-80.65Q925.10-76 925.25-71.95Q925.40-67.90 926.45-65.35Q927.50-62.80 929.30-63.10L929.30-63.10Q933.50-63.40 940.10-67.60Q946.70-71.80 952.55-77.35Q958.40-82.90 963.35-88.15Q968.30-93.40 970.10-96.70ZM1042.40-98.50L1042.40-98.50Q1043.90-99.70 1045.10-98.05Q1046.30-96.40 1045.10-94.90L1045.10-94.90Q1041.20-91 1037.90-87.40L1037.90-87.40Q1036.40-85.90 1034.90-87.10L1034.90-87.10Q1030.70-83.80 1028.60-82.15Q1026.50-80.50 1022.00-77.05Q1017.50-73.60 1014.80-71.80Q1012.10-70 1008.05-67.30Q1004.00-64.60 1001.30-63.55Q998.60-62.50 995.60-61.60Q992.60-60.70 990.35-61Q988.10-61.30 986.60-62.50L986.60-62.50Q979.10-68.80 979.70-79.90L979.70-79.90Q958.40-56.80 949.70-58.90L949.70-58.90Q946.10-61.60 948.95-72.10Q951.80-82.60 961.25-94.30Q970.70-106 978.50-105.70L978.50-105.70Q987.20-105.40 986.90-95.80L986.90-95.80Q987.20-96.10 987.50-96.40L987.50-96.40L987.50-96.40Q987.50-96.40 987.80-96.55Q988.10-96.70 988.10-97L988.10-97Q989.90-98.20 991.10-96.40Q992.30-94.60 991.10-93.10L991.10-93.10Q988.70-90.40 986.90-88L986.90-88Q984.20-82.60 986.45-76.90Q988.70-71.20 993.50-69.40L993.50-69.40Q997.40-67.60 1006.70-73.15Q1016.00-78.70 1028.30-88.15Q1040.60-97.60 1042.40-98.50ZM957.20-67.30L957.20-67.30Q963.20-67.30 976.70-83.20L976.70-83.20Q974.30-85 975.20-87.70L975.20-87.70Q973.10-92.80 963.50-83.20L963.50-83.20Q953.90-73.60 954.80-68.80L954.80-68.80Q955.10-67 957.20-67.30ZM1078.40-108.10L1078.40-108.10Q1079.00-106.60 1077.35-105.85Q1075.70-105.10 1074.80-106.60L1074.80-106.60Q1070.90-114.40 1062.20-101.65Q1053.50-88.90 1049.60-79.90L1049.60-79.90Q1042.70-64.60 1042.10-44.50L1042.10-44.50Q1042.10-43 1040.60-42.40L1040.60-42.40Q1040.30-41.80 1039.25-41.80Q1038.20-41.80 1038.20-43L1038.20-43Q1038.20-43.30 1038.20-43.75Q1038.20-44.20 1038.05-44.35Q1037.90-44.50 1037.90-44.80L1037.90-44.80Q1037.60-48.70 1037.60-52.90L1037.60-52.90Q1037.30-72.40 1039.70-92.95Q1042.10-113.50 1048.10-118.90L1048.10-118.90Q1048.70-119.50 1050.50-119.05Q1052.30-118.60 1052.60-117.70L1052.60-117.70Q1053.50-115 1052.90-110.35Q1052.30-105.70 1051.55-103Q1050.80-100.30 1049.15-95.65Q1047.50-91 1046.90-88.30L1046.90-88.30Q1046.90-88 1046.90-87.40L1046.90-87.40L1046.60-86.80Q1050.80-95.20 1056.80-104.50L1056.80-104.50Q1058.60-107.50 1061.60-110.05Q1064.60-112.60 1067.90-114.10Q1071.20-115.60 1074.20-114.25Q1077.20-112.90 1078.40-108.10Z"/></g></svg>