<svg width="1164" height="1222" viewBox="0 0 1164 1222" fill="none" xmlns="http://www.w3.org/2000/svg">
<path d="M557.557 11.279C570.922 -2.54249 593.078 -2.5425 606.443 11.279L721.451 130.223C729.297 138.337 740.659 142.029 751.776 140.076L914.733 111.449C933.669 108.122 951.594 121.145 954.282 140.183L977.412 304.01C978.99 315.187 986.012 324.852 996.154 329.806L1144.82 402.43C1162.09 410.869 1168.94 431.941 1159.92 448.922L1082.34 595.057C1077.05 605.027 1077.05 616.973 1082.34 626.943L1159.92 773.078C1168.94 790.059 1162.09 811.131 1144.82 819.57L996.154 892.194C986.012 897.148 978.99 906.813 977.412 917.99L954.282 1081.82C951.594 1100.85 933.669 1113.88 914.733 1110.55L751.776 1081.92C740.659 1079.97 729.297 1083.66 721.451 1091.78L606.443 1210.72C593.078 1224.54 570.922 1224.54 557.557 1210.72L442.549 1091.78C434.703 1083.66 423.341 1079.97 412.224 1081.92L249.267 1110.55C230.331 1113.88 212.406 1100.85 209.718 1081.82L186.588 917.99C185.01 906.813 177.988 897.148 167.846 892.194L19.1846 819.57C1.90983 811.131 -4.93702 790.059 4.07827 773.078L81.6609 626.943C86.9538 616.973 86.9538 605.027 81.6609 595.057L4.07828 448.922C-4.93701 431.941 1.9098 410.869 19.1846 402.43L167.846 329.806C177.988 324.852 185.01 315.187 186.588 304.01L209.718 140.183C212.406 121.145 230.331 108.122 249.267 111.449L412.224 140.076C423.341 142.029 434.703 138.337 442.549 130.223L557.557 11.279Z" fill="#D9D9D9"/>
</svg>
