<svg width="2287" height="115" viewBox="0 0 2287 115" fill="none" xmlns="http://www.w3.org/2000/svg">
<path d="M2260.17 0.373657C2212.33 0.373657 2185.75 18.9824 2164.49 37.5912C2145.88 50.8832 2132.59 61.5168 2100.69 61.5168C2068.8 61.5168 2055.51 50.8832 2036.9 37.5912C2015.64 21.6408 1989.06 0.373657 1941.21 0.373657C1893.37 0.373657 1866.79 18.9824 1845.53 37.5912C1826.92 50.8832 1813.63 61.5168 1781.73 61.5168C1752.5 61.5168 1736.55 50.8832 1717.94 37.5912C1696.68 21.6408 1670.1 0.373657 1622.25 0.373657C1574.41 0.373657 1547.83 18.9824 1526.57 37.5912C1507.96 50.8832 1494.67 61.5168 1462.77 61.5168C1430.88 61.5168 1417.59 50.8832 1398.98 37.5912C1377.72 21.6408 1351.14 0.373657 1303.29 0.373657C1255.45 0.373657 1228.87 18.9824 1207.61 37.5912C1189 50.8832 1175.71 61.5168 1143.81 61.5168C1114.58 61.5168 1098.63 50.8832 1080.02 37.5912C1058.76 21.6408 1032.18 0.373657 984.334 0.373657C936.49 0.373657 909.91 18.9824 888.646 37.5912C870.04 50.8832 856.75 61.5168 824.854 61.5168C795.616 61.5168 779.668 50.8832 761.062 37.5912C739.798 21.6408 713.218 0.373657 665.374 0.373657C617.53 0.373657 590.95 18.9824 569.686 37.5912C551.08 50.8832 537.79 61.5168 505.894 61.5168C473.998 61.5168 460.708 50.8832 442.102 37.5912C420.838 21.6408 394.258 0.373657 346.414 0.373657C298.57 0.373657 271.99 18.9824 250.726 37.5912C232.12 50.8832 218.83 61.5168 186.934 61.5168C157.696 61.5168 141.748 50.8832 123.142 37.5912C101.878 21.6408 75.298 0.373657 27.454 0.373657C11.506 0.373657 0.874023 11.0073 0.874023 26.9577C0.874023 42.9081 11.506 53.5417 27.454 53.5417C56.692 53.5417 72.64 64.1752 91.246 77.4672C112.51 93.4176 139.09 114.685 186.934 114.685C234.778 114.685 261.358 96.076 282.622 77.4672C301.228 64.1752 314.518 53.5417 346.414 53.5417C378.31 53.5417 391.6 64.1752 410.206 77.4672C431.47 93.4176 458.05 114.685 505.894 114.685C553.738 114.685 580.318 96.076 601.582 77.4672C620.188 64.1752 633.478 53.5417 665.374 53.5417C694.612 53.5417 710.56 64.1752 729.166 77.4672C750.43 93.4176 777.01 114.685 824.854 114.685C872.698 114.685 899.278 96.076 920.542 77.4672C939.148 64.1752 952.438 53.5417 984.334 53.5417C1013.57 53.5417 1029.52 64.1752 1048.13 77.4672C1069.39 93.4176 1095.97 114.685 1143.81 114.685C1191.66 114.685 1218.24 96.076 1239.5 77.4672C1258.11 64.1752 1271.4 53.5417 1303.29 53.5417C1335.19 53.5417 1348.48 64.1752 1367.09 77.4672C1388.35 93.4176 1414.93 114.685 1462.77 114.685C1510.62 114.685 1537.2 96.076 1558.46 77.4672C1577.07 64.1752 1590.36 53.5417 1622.25 53.5417C1651.49 53.5417 1667.44 64.1752 1686.05 77.4672C1707.31 93.4176 1733.89 114.685 1781.73 114.685C1829.58 114.685 1856.16 96.076 1877.42 77.4672C1896.03 64.1752 1909.32 53.5417 1941.21 53.5417C1973.11 53.5417 1986.4 64.1752 2005.01 77.4672C2026.27 93.4176 2052.85 114.685 2100.69 114.685C2148.54 114.685 2175.12 96.076 2196.38 77.4672C2214.99 64.1752 2228.28 53.5417 2260.17 53.5417C2276.12 53.5417 2286.75 42.9081 2286.75 26.9577C2286.75 11.0073 2273.46 0.373657 2260.17 0.373657Z" fill="white"/>
</svg>
