<svg width="4775" height="1425" viewBox="0 0 4775 1425" fill="none" xmlns="http://www.w3.org/2000/svg">
<path d="M4719.48 0C4619.53 0 4564.01 77.3253 4519.59 154.651C4480.73 209.883 4452.96 254.07 4386.34 254.07C4319.71 254.07 4291.95 209.883 4253.08 154.651C4208.66 88.3718 4153.14 0 4053.2 0C3953.26 0 3897.73 77.3253 3853.31 154.651C3814.45 209.883 3786.69 254.07 3720.06 254.07C3658.98 254.07 3625.67 209.883 3586.8 154.651C3542.38 88.3718 3486.86 0 3386.92 0C3286.98 0 3231.45 77.3253 3187.03 154.651C3148.17 209.883 3120.41 254.07 3053.78 254.07C2987.15 254.07 2959.39 209.883 2920.52 154.651C2876.1 88.3718 2820.58 0 2720.64 0C2620.7 0 2565.17 77.3253 2520.76 154.651C2481.89 209.883 2454.13 254.07 2387.5 254.07C2326.42 254.07 2293.11 209.883 2254.24 154.651C2209.83 88.3718 2154.3 0 2054.36 0C1954.42 0 1898.9 77.3253 1854.48 154.651C1815.61 209.883 1787.85 254.07 1721.22 254.07C1660.15 254.07 1626.83 209.883 1587.97 154.651C1543.55 88.3718 1488.02 0 1388.08 0C1288.14 0 1232.62 77.3253 1188.2 154.651C1149.33 209.883 1121.57 254.07 1054.94 254.07C988.314 254.07 960.552 209.883 921.686 154.651C877.267 88.3718 821.744 0 721.802 0C621.86 0 566.337 77.3253 521.919 154.651C483.052 209.883 455.291 254.07 388.663 254.07C327.587 254.07 294.273 209.883 255.407 154.651C210.988 88.3718 155.465 0 55.5233 0C22.2093 0 0 44.186 0 110.465C0 176.744 22.2093 220.93 55.5233 220.93C116.599 220.93 149.913 265.116 188.779 320.349C233.198 386.628 288.721 475 388.663 475C488.605 475 544.128 397.674 588.546 320.349C627.413 265.116 655.174 220.93 721.802 220.93C788.43 220.93 816.192 265.116 855.058 320.349C899.477 386.628 955 475 1054.94 475C1154.88 475 1210.41 397.674 1254.83 320.349C1293.69 265.116 1321.45 220.93 1388.08 220.93C1449.16 220.93 1482.47 265.116 1521.34 320.349C1565.76 386.628 1621.28 475 1721.22 475C1821.16 475 1876.69 397.674 1921.1 320.349C1959.97 265.116 1987.73 220.93 2054.36 220.93C2115.44 220.93 2148.75 265.116 2187.62 320.349C2232.03 386.628 2287.56 475 2387.5 475C2487.44 475 2542.97 397.674 2587.38 320.349C2626.25 265.116 2654.01 220.93 2720.64 220.93C2787.27 220.93 2815.03 265.116 2853.9 320.349C2898.31 386.628 2953.84 475 3053.78 475C3153.72 475 3209.24 397.674 3253.66 320.349C3292.53 265.116 3320.29 220.93 3386.92 220.93C3447.99 220.93 3481.31 265.116 3520.17 320.349C3564.59 386.628 3620.12 475 3720.06 475C3820 475 3875.52 397.674 3919.94 320.349C3958.81 265.116 3986.57 220.93 4053.2 220.93C4119.83 220.93 4147.59 265.116 4186.45 320.349C4230.87 386.628 4286.39 475 4386.34 475C4486.28 475 4541.8 397.674 4586.22 320.349C4625.09 265.116 4652.85 220.93 4719.48 220.93C4752.79 220.93 4775 176.744 4775 110.465C4775 44.186 4747.24 0 4719.48 0Z" fill="white" fill-opacity="0.7"/>
<path d="M4719.48 475C4619.53 475 4564.01 552.325 4519.59 629.651C4480.73 684.883 4452.96 729.07 4386.34 729.07C4319.71 729.07 4291.95 684.883 4253.08 629.651C4208.66 563.372 4153.14 475 4053.2 475C3953.26 475 3897.73 552.325 3853.31 629.651C3814.45 684.883 3786.69 729.07 3720.06 729.07C3658.98 729.07 3625.67 684.883 3586.8 629.651C3542.38 563.372 3486.86 475 3386.92 475C3286.98 475 3231.45 552.325 3187.03 629.651C3148.17 684.883 3120.41 729.07 3053.78 729.07C2987.15 729.07 2959.39 684.883 2920.52 629.651C2876.1 563.372 2820.58 475 2720.64 475C2620.7 475 2565.17 552.325 2520.76 629.651C2481.89 684.883 2454.13 729.07 2387.5 729.07C2326.42 729.07 2293.11 684.883 2254.24 629.651C2209.83 563.372 2154.3 475 2054.36 475C1954.42 475 1898.9 552.325 1854.48 629.651C1815.61 684.883 1787.85 729.07 1721.22 729.07C1660.15 729.07 1626.83 684.883 1587.97 629.651C1543.55 563.372 1488.02 475 1388.08 475C1288.14 475 1232.62 552.325 1188.2 629.651C1149.33 684.883 1121.57 729.07 1054.94 729.07C988.314 729.07 960.552 684.883 921.686 629.651C877.267 563.372 821.744 475 721.802 475C621.86 475 566.337 552.325 521.919 629.651C483.052 684.883 455.291 729.07 388.663 729.07C327.587 729.07 294.273 684.883 255.407 629.651C210.988 563.372 155.465 475 55.5233 475C22.2093 475 0 519.186 0 585.465C0 651.744 22.2093 695.93 55.5233 695.93C116.599 695.93 149.913 740.116 188.779 795.349C233.198 861.628 288.721 950 388.663 950C488.605 950 544.128 872.674 588.546 795.349C627.413 740.116 655.174 695.93 721.802 695.93C788.43 695.93 816.192 740.116 855.058 795.349C899.477 861.628 955 950 1054.94 950C1154.88 950 1210.41 872.674 1254.83 795.349C1293.69 740.116 1321.45 695.93 1388.08 695.93C1449.16 695.93 1482.47 740.116 1521.34 795.349C1565.76 861.628 1621.28 950 1721.22 950C1821.16 950 1876.69 872.674 1921.1 795.349C1959.97 740.116 1987.73 695.93 2054.36 695.93C2115.44 695.93 2148.75 740.116 2187.62 795.349C2232.03 861.628 2287.56 950 2387.5 950C2487.44 950 2542.97 872.674 2587.38 795.349C2626.25 740.116 2654.01 695.93 2720.64 695.93C2787.27 695.93 2815.03 740.116 2853.9 795.349C2898.31 861.628 2953.84 950 3053.78 950C3153.72 950 3209.24 872.674 3253.66 795.349C3292.53 740.116 3320.29 695.93 3386.92 695.93C3447.99 695.93 3481.31 740.116 3520.17 795.349C3564.59 861.628 3620.12 950 3720.06 950C3820 950 3875.52 872.674 3919.94 795.349C3958.81 740.116 3986.57 695.93 4053.2 695.93C4119.83 695.93 4147.59 740.116 4186.45 795.349C4230.87 861.628 4286.39 950 4386.34 950C4486.28 950 4541.8 872.674 4586.22 795.349C4625.09 740.116 4652.85 695.93 4719.48 695.93C4752.79 695.93 4775 651.744 4775 585.465C4775 519.186 4747.24 475 4719.48 475Z" fill="white" fill-opacity="0.7"/>
<path d="M4719.48 950C4619.53 950 4564.01 1027.33 4519.59 1104.65C4480.73 1159.88 4452.96 1204.07 4386.34 1204.07C4319.71 1204.07 4291.95 1159.88 4253.08 1104.65C4208.66 1038.37 4153.14 950 4053.2 950C3953.26 950 3897.73 1027.33 3853.31 1104.65C3814.45 1159.88 3786.69 1204.07 3720.06 1204.07C3658.98 1204.07 3625.67 1159.88 3586.8 1104.65C3542.38 1038.37 3486.86 950 3386.92 950C3286.98 950 3231.45 1027.33 3187.03 1104.65C3148.17 1159.88 3120.41 1204.07 3053.78 1204.07C2987.15 1204.07 2959.39 1159.88 2920.52 1104.65C2876.1 1038.37 2820.58 950 2720.64 950C2620.7 950 2565.17 1027.33 2520.76 1104.65C2481.89 1159.88 2454.13 1204.07 2387.5 1204.07C2326.42 1204.07 2293.11 1159.88 2254.24 1104.65C2209.83 1038.37 2154.3 950 2054.36 950C1954.42 950 1898.9 1027.33 1854.48 1104.65C1815.61 1159.88 1787.85 1204.07 1721.22 1204.07C1660.15 1204.07 1626.83 1159.88 1587.97 1104.65C1543.55 1038.37 1488.02 950 1388.08 950C1288.14 950 1232.62 1027.33 1188.2 1104.65C1149.33 1159.88 1121.57 1204.07 1054.94 1204.07C988.314 1204.07 960.552 1159.88 921.686 1104.65C877.267 1038.37 821.744 950 721.802 950C621.86 950 566.337 1027.33 521.919 1104.65C483.052 1159.88 455.291 1204.07 388.663 1204.07C327.587 1204.07 294.273 1159.88 255.407 1104.65C210.988 1038.37 155.465 950 55.5233 950C22.2093 950 0 994.186 0 1060.47C0 1126.74 22.2093 1170.93 55.5233 1170.93C116.599 1170.93 149.913 1215.12 188.779 1270.35C233.198 1336.63 288.721 1425 388.663 1425C488.605 1425 544.128 1347.67 588.546 1270.35C627.413 1215.12 655.174 1170.93 721.802 1170.93C788.43 1170.93 816.192 1215.12 855.058 1270.35C899.477 1336.63 955 1425 1054.94 1425C1154.88 1425 1210.41 1347.67 1254.83 1270.35C1293.69 1215.12 1321.45 1170.93 1388.08 1170.93C1449.16 1170.93 1482.47 1215.12 1521.34 1270.35C1565.76 1336.63 1621.28 1425 1721.22 1425C1821.16 1425 1876.69 1347.67 1921.1 1270.35C1959.97 1215.12 1987.73 1170.93 2054.36 1170.93C2115.44 1170.93 2148.75 1215.12 2187.62 1270.35C2232.03 1336.63 2287.56 1425 2387.5 1425C2487.44 1425 2542.97 1347.67 2587.38 1270.35C2626.25 1215.12 2654.01 1170.93 2720.64 1170.93C2787.27 1170.93 2815.03 1215.12 2853.9 1270.35C2898.31 1336.63 2953.84 1425 3053.78 1425C3153.72 1425 3209.24 1347.67 3253.66 1270.35C3292.53 1215.12 3320.29 1170.93 3386.92 1170.93C3447.99 1170.93 3481.31 1215.12 3520.17 1270.35C3564.59 1336.63 3620.12 1425 3720.06 1425C3820 1425 3875.52 1347.67 3919.94 1270.35C3958.81 1215.12 3986.57 1170.93 4053.2 1170.93C4119.83 1170.93 4147.59 1215.12 4186.45 1270.35C4230.87 1336.63 4286.39 1425 4386.34 1425C4486.28 1425 4541.8 1347.67 4586.22 1270.35C4625.09 1215.12 4652.85 1170.93 4719.48 1170.93C4752.79 1170.93 4775 1126.74 4775 1060.47C4775 994.186 4747.24 950 4719.48 950Z" fill="white" fill-opacity="0.7"/>
</svg>
